<?xml version="1.0" encoding="iso-8859-1"?>
<!-- Uploaded to: SVG Repo, www.svgrepo.com, Generator: SVG Repo Mixer Tools -->
<svg version="1.1" id="Layer_1" xmlns="http://www.w3.org/2000/svg" xmlns:xlink="http://www.w3.org/1999/xlink" 
	 viewBox="0 0 512 512" xml:space="preserve">
<path style="fill:#FFE477;" d="M107.457,73.852H68.829v36.971H29.21V73.852H0v364.213h29.21v-33.298h39.619v33.298h372.428v-33.298
	h41.533v33.298H512V73.852h-29.21v36.971h-41.533V73.852H182.97H107.457z M68.829,375.557H29.21v-36.974h39.619V375.557z
	 M68.829,309.374H29.21v-36.973h39.619V309.374z M68.829,243.189H29.21v-36.973h39.619V243.189z M68.829,177.006H29.21v-36.973
	h39.619V177.006z M482.79,140.033v36.973h-41.533v-36.973H482.79z M441.257,243.189v-36.973h41.533v36.973H441.257z M482.79,272.4
	v36.973h-41.533V272.4H482.79z M441.257,375.557v-36.974h41.533v36.973h-41.533V375.557z"/>
<rect x="96.216" y="100.633" style="fill:#FFF5CC;" width="317.66" height="310.648"/>
<rect x="225.537" y="226.981" style="fill:#FF9478;" width="85.08" height="137.275"/>
<rect x="225.537" y="226.981" style="opacity:0.63;fill:#FF7956;enable-background:new    ;" width="85.08" height="137.275"/>
<path style="fill:#FF9478;" d="M311.967,364.388h-14.708l-17.079,0.252h-91.135c-17.236,0-31.208-13.972-31.208-31.208v-24.417
	v-22.93v-32.77l30.842-44.161l18.598-28.019l23.557-35.489c5.22-7.863,15.923-10.027,23.787-4.807l0,0
	c7.863,5.219,10.027,15.923,4.807,23.787l-23.557,35.489c0,0,25.917,25.306,2.707,60.274
	C238.578,260.39,221.246,364.388,311.967,364.388"/>
<path style="fill:#FF7956;" d="M334.734,261.304h-51.537c-9.437,0-17.159-7.722-17.159-17.159l0,0
	c0-9.437,7.722-17.159,17.159-17.159h37.8l23.465,0.126c9.437,0,17.159,7.722,17.159,17.159l0,0c0,9.437-7.722,17.159-17.159,17.159
	h-51.537L334.734,261.304z"/>
<path style="fill:#FF9478;" d="M335.513,261.304h-52.316c-9.437,0-17.159,7.722-17.159,17.159l0,0
	c0,9.437,7.722,17.159,17.159,17.159h51.58l-41.894,0.126h51.58c9.437,0,17.159-7.722,17.159-17.159l0,0
	c0-9.437-7.722-17.159-17.159-17.159h-52.316"/>
<path style="fill:#FF7956;" d="M325.336,329.943h-33.983c-9.437,0-17.159-7.722-17.159-17.159l0,0
	c0-9.437,7.722-17.159,17.159-17.159h14.708l13.715,0.126h14.708c9.437,0,17.159,7.722,17.159,17.159l0,0
	c0,9.437-7.722,17.159-17.159,17.159h-33.983L325.336,329.943z"/>
<path style="fill:#FF9478;" d="M300.776,329.943h14.708c9.437,0,17.159,7.722,17.159,17.159l0,0c0,9.437-7.722,17.159-17.159,17.159
	h-14.708h9.847h-14.708c-9.437,0-17.159-7.722-17.159-17.159l0,0c0-9.437,7.722-17.159,17.159-17.159h14.708H300.776z"/>
<g style="opacity:0.34;">
	<path style="fill:#CCA400;" d="M482.79,243.273v-3.661c-2.729,1.237-5.471,2.455-8.221,3.661H482.79z"/>
	<path style="fill:#CCA400;" d="M482.79,239.611v3.661h-8.221C318.812,311.512,126.672,328.718,0,331.722v106.426h29.21v-33.298
		h39.619v33.298h372.428v-33.298h41.533v33.298H512V225.49C502.438,230.416,492.692,235.12,482.79,239.611z M68.829,375.639H29.21
		v-36.973h39.619V375.639z M482.79,375.639h-41.533v-36.973h41.533V375.639z M482.79,309.456h-41.533v-36.973h41.533V309.456z"/>
</g>
</svg>